<svg width="41" height="38" viewBox="0 0 41 38" fill="none" xmlns="http://www.w3.org/2000/svg">
<path d="M34.5938 22.5625C36.7129 22.5625 38.4375 20.9641 38.4375 19C38.4375 17.0359 36.7129 15.4375 34.5938 15.4375C33.8014 15.4397 33.0292 15.6692 32.3832 16.0944C31.7371 16.5196 31.249 17.1198 30.9858 17.8125H23.5929L32.9461 9.14375C33.4483 9.36581 34.0018 9.5 34.5938 9.5C36.7129 9.5 38.4375 7.90163 38.4375 5.9375C38.4375 3.97337 36.7129 2.375 34.5938 2.375C32.4746 2.375 30.75 3.97337 30.75 5.9375C30.75 6.48612 30.8961 6.99913 31.1344 7.46344L20.5 17.3209V9.5C20.5 8.19137 21.6493 7.125 23.0625 7.125H25.625V4.75H23.0625C21.525 4.75 20.1592 5.39481 19.2188 6.39112C18.7422 5.87849 18.1524 5.46668 17.4892 5.18355C16.8261 4.90042 16.1051 4.75257 15.375 4.75H14.0938C7.73619 4.75 2.5625 9.54394 2.5625 15.4375V22.5625C2.5625 28.4561 7.73619 33.25 14.0938 33.25H15.375C16.9125 33.25 18.2783 32.6064 19.2188 31.6089C20.1592 32.6064 21.525 33.25 23.0625 33.25H25.625V30.875H23.0625C21.6493 30.875 20.5 29.8098 20.5 28.5V20.6791L31.1344 30.5366C30.8948 31.0009 30.75 31.5139 30.75 32.0625C30.75 34.0278 32.4746 35.625 34.5938 35.625C36.7129 35.625 38.4375 34.0278 38.4375 32.0625C38.4375 30.0972 36.7129 28.5 34.5938 28.5C34.0229 28.5028 33.4601 28.625 32.9473 28.8574L23.5929 20.1887H30.9858C31.2492 20.8811 31.7374 21.4811 32.3834 21.9061C33.0294 22.3311 33.8015 22.5604 34.5938 22.5625ZM34.5938 17.8125C34.9336 17.8125 35.2594 17.9376 35.4997 18.1603C35.74 18.383 35.875 18.6851 35.875 19C35.875 19.3149 35.74 19.617 35.4997 19.8397C35.2594 20.0624 34.9336 20.1875 34.5938 20.1875C34.2539 20.1875 33.928 20.0624 33.6878 19.8397C33.4475 19.617 33.3125 19.3149 33.3125 19C33.3125 18.6851 33.4475 18.383 33.6878 18.1603C33.928 17.9376 34.2539 17.8125 34.5938 17.8125ZM34.5938 4.75C34.9236 4.76368 35.2351 4.89476 35.4634 5.11597C35.6916 5.33717 35.819 5.63144 35.819 5.9375C35.819 6.24356 35.6916 6.53783 35.4634 6.75903C35.2351 6.98024 34.9236 7.11132 34.5938 7.125C34.2539 7.125 33.928 6.99989 33.6878 6.77719C33.4475 6.55449 33.3125 6.25244 33.3125 5.9375C33.3125 5.62256 33.4475 5.32051 33.6878 5.09781C33.928 4.87511 34.2539 4.75 34.5938 4.75ZM17.9375 14.25H15.375V16.625H17.9375V21.375H15.375C13.2558 21.375 11.5312 22.9734 11.5312 24.9375V27.3125H14.0938V24.9375C14.0938 24.6226 14.2287 24.3205 14.469 24.0978C14.7093 23.8751 15.0352 23.75 15.375 23.75H17.9375V28.5C17.9375 29.8098 16.7882 30.875 15.375 30.875H14.0938C9.58375 30.875 5.85275 27.7721 5.2275 23.75H7.6875V21.375H5.125V16.625H8.96875C11.0879 16.625 12.8125 15.0266 12.8125 13.0625V10.6875H10.25V13.0625C10.25 13.3774 10.115 13.6795 9.87473 13.9022C9.63445 14.1249 9.30856 14.25 8.96875 14.25H5.2275C5.85275 10.2279 9.58375 7.125 14.0938 7.125H15.375C16.7882 7.125 17.9375 8.19137 17.9375 9.5V14.25ZM35.875 32.0625C35.8602 32.3683 35.7188 32.657 35.4801 32.8685C35.2415 33.08 34.924 33.1981 34.5938 33.1981C34.2635 33.1981 33.946 33.08 33.7074 32.8685C33.4687 32.657 33.3273 32.3683 33.3125 32.0625C33.3125 31.4082 33.8878 30.875 34.5938 30.875C35.2997 30.875 35.875 31.4082 35.875 32.0625Z" fill="white"/>
</svg>
