<svg width="45" height="46" viewBox="0 0 45 46" fill="none" xmlns="http://www.w3.org/2000/svg">
<path d="M20.625 35.4583C20.625 34.7236 20.3831 33.9972 19.8994 33.2791C19.4156 32.561 18.8763 31.8103 18.2812 31.027C17.6862 30.2437 17.1475 29.4292 16.665 28.5833C16.1825 27.7374 15.94 26.8346 15.9375 25.875C15.9375 24.0222 16.5781 22.441 17.8594 21.1313C19.1406 19.8215 20.6875 19.1667 22.5 19.1667C24.3125 19.1667 25.8594 19.8215 27.1406 21.1313C28.4219 22.441 29.0625 24.0222 29.0625 25.875C29.0625 26.8333 28.8206 27.7361 28.3369 28.5833C27.8531 29.4304 27.3137 30.2444 26.7188 31.0251C26.1238 31.8058 25.585 32.5565 25.1025 33.2772C24.62 33.9978 24.3775 34.7249 24.375 35.4583H20.625ZM22.5 40.25C21.9688 40.25 21.5238 40.066 21.165 39.698C20.8063 39.33 20.6263 38.8751 20.625 38.3333V37.375H24.375V38.3333C24.375 38.8764 24.195 39.3319 23.835 39.6999C23.475 40.0679 23.03 40.2513 22.5 40.25ZM33.75 34.5C33.4688 34.2125 33.305 33.8451 33.2588 33.3979C33.2125 32.9507 33.3137 32.5514 33.5625 32.2C34.2188 31.1458 34.7269 30.0042 35.0869 28.7749C35.4469 27.5457 35.6262 26.2596 35.625 24.9167C35.625 23.1597 35.32 21.5063 34.71 19.9563C34.1 18.4064 33.2487 17.0251 32.1562 15.8125C31.8125 15.3972 31.6331 14.9423 31.6181 14.4478C31.6031 13.9533 31.7825 13.5138 32.1562 13.1292C32.53 12.7446 32.9831 12.5529 33.5156 12.5542C34.0481 12.5555 34.4856 12.7471 34.8281 13.1292C36.2344 14.6625 37.3438 16.4354 38.1562 18.4479C38.9688 20.4604 39.375 22.6167 39.375 24.9167C39.375 26.6417 39.1406 28.2951 38.6719 29.877C38.2031 31.4589 37.5469 32.92 36.7031 34.2604C36.3594 34.8035 35.8906 35.091 35.2969 35.1229C34.7031 35.1549 34.1875 34.9472 33.75 34.5ZM8.29688 34.2604C7.45313 32.9188 6.79688 31.4576 6.32812 29.877C5.85938 28.2964 5.625 26.643 5.625 24.9167C5.625 20.125 7.26562 16.0521 10.5469 12.6979C13.8281 9.34376 17.8125 7.66668 22.5 7.66668H22.875L21.1875 5.94168C20.8438 5.59029 20.6719 5.14307 20.6719 4.60001C20.6719 4.05696 20.8438 3.60973 21.1875 3.25835C21.5312 2.90696 21.9688 2.73126 22.5 2.73126C23.0312 2.73126 23.4688 2.90696 23.8125 3.25835L28.6875 8.24168C28.875 8.43335 29.0075 8.64098 29.085 8.8646C29.1625 9.08821 29.2019 9.32779 29.2031 9.58335C29.2044 9.8389 29.165 10.0785 29.085 10.3021C29.005 10.5257 28.8725 10.7333 28.6875 10.925L23.8125 15.9083C23.4375 16.2917 23 16.4757 22.5 16.4603C22 16.445 21.5625 16.245 21.1875 15.8604C20.8125 15.4758 20.625 15.0209 20.625 14.4958C20.625 13.9706 20.8125 13.5151 21.1875 13.1292L22.7812 11.5H22.5C18.875 11.5 15.7812 12.8097 13.2188 15.4292C10.6563 18.0486 9.375 21.2111 9.375 24.9167C9.375 26.2583 9.555 27.5444 9.915 28.7749C10.275 30.0054 10.7825 31.1471 11.4375 32.2C11.6875 32.5514 11.7894 32.9507 11.7431 33.3979C11.6969 33.8451 11.5325 34.2125 11.25 34.5C10.8125 34.9472 10.2969 35.1549 9.70313 35.1229C9.10938 35.091 8.64063 34.8035 8.29688 34.2604Z" fill="white"/>
</svg>
