<svg width="383" height="263" viewBox="0 0 383 263" fill="none" xmlns="http://www.w3.org/2000/svg">
<g clip-path="url(#clip0_7_241)">
<g filter="url(#filter0_f_7_241)">
<path d="M160.5 108C131 103 59 220 69.5 177.5C86 171.5 138 44.258 164 89C188.5 72.5 192.5 66.5302 211.5 60C211.5 84.3005 187.5 89.7279 160.5 108Z" fill="white"/>
</g>
<path d="M36.1929 261.782H117.402V259.472C117.402 257.466 116.543 255.542 115.013 254.124C113.483 252.706 111.407 251.909 109.244 251.909H44.3513C42.1875 251.909 40.1124 252.706 38.5824 254.124C37.0524 255.542 36.1929 257.466 36.1929 259.472V261.782Z" fill="#E6E6E6"/>
<path d="M78.6979 252.37L76.2284 251.448C102.068 191.991 99.5791 116.982 77.7358 52.6373C75.1411 45.1821 74.954 37.1863 77.1974 29.6337C79.4409 22.0812 84.0171 15.3013 90.363 10.1281C103.042 -0.359864 120.521 -2.91483 135.982 3.45963C151.244 9.75274 153.347 20.7144 153.347 31.6227H150.685C150.685 19.9786 148 11.1167 134.9 5.71481C120.409 -0.259231 104.023 2.13696 92.136 11.97C86.1755 16.8286 81.8772 23.1965 79.77 30.2902C77.6627 37.3839 77.8385 44.8938 80.2756 51.8961C102.371 116.984 104.714 192.508 78.6979 252.37Z" fill="#E6E6E6"/>
<path d="M151.35 68.0286C146.203 68.0286 142.031 64.1609 142.031 59.3899C142.031 54.6189 146.203 50.7512 151.35 50.7512C156.497 50.7512 160.669 54.6189 160.669 59.3899C160.669 64.1609 156.497 68.0286 151.35 68.0286Z" fill="#E6E6E6"/>
<path d="M165.702 74.4496V58.0814H162.957V74.4496C162.169 74.7449 161.517 75.285 161.112 75.9772C160.707 76.6694 160.574 77.4707 160.736 78.2437C160.898 79.0167 161.346 79.7134 162.001 80.2142C162.657 80.7151 163.48 80.989 164.33 80.989C165.179 80.989 166.002 80.7151 166.658 80.2142C167.313 79.7134 167.761 79.0167 167.923 78.2437C168.085 77.4707 167.952 76.6694 167.547 75.9772C167.142 75.285 166.49 74.7449 165.702 74.4496Z" fill="#E6E6E6"/>
<path d="M178.975 45.5062C178.97 41.7435 177.356 38.1362 174.485 35.4756C171.615 32.815 167.724 31.3184 163.665 31.3141H138.37C134.31 31.3141 130.415 32.8093 127.544 35.4709C124.673 38.1324 123.06 41.7422 123.06 45.5062C123.06 49.2702 124.673 52.88 127.544 55.5416C130.415 58.2031 134.31 59.6983 138.37 59.6983H163.665C167.724 59.6941 171.615 58.1975 174.485 55.5368C177.356 52.8762 178.97 49.2689 178.975 45.5062Z" fill="#4ABEF8"/>
<path d="M214.614 133.393C212.074 103.273 199.089 88.9225 207.404 79.9231C215.368 71.3027 237.802 73.0835 252.209 81.3553C291.07 103.666 305.307 192.59 255.299 236.036C207.78 277.32 117.721 264.098 97.7064 230.307C93.0365 222.422 89.3267 208.601 96.1614 200.23C113.13 179.448 174.824 217.09 202.253 193.546C218.509 179.594 216.007 149.922 214.614 133.393Z" fill="#4ABEF8"/>
<path d="M184.908 118.429C185.852 118.832 186.589 119.56 186.963 120.458C187.337 121.357 187.317 122.355 186.909 123.241C186.823 123.42 186.721 123.592 186.605 123.755L194.945 134.079L190.783 139.845L181.007 124.558C180.314 124.057 179.82 123.358 179.601 122.569C179.382 121.78 179.451 120.947 179.797 120.198C179.998 119.774 180.287 119.391 180.648 119.07C181.009 118.75 181.435 118.499 181.901 118.331C182.367 118.163 182.863 118.081 183.363 118.091C183.863 118.101 184.356 118.202 184.813 118.389C184.845 118.402 184.877 118.415 184.908 118.429Z" fill="#FFB6B6"/>
<path d="M184.915 136.229C184.369 136.678 185.883 137.232 187.485 136.358C187.943 136.105 188.139 136 188.191 136.067C188.319 136.234 187.567 137.466 187.768 140.201C187.892 141.834 190.817 144.904 194.139 147.897C198.63 151.945 203.852 155.851 203.852 155.851L205.685 154.49L224.911 140.201L228.155 136.038C227.858 134.394 227.412 132.776 226.821 131.202C226.008 129.023 225.041 126.895 223.927 124.833C223.33 123.711 222.717 122.642 222.13 121.659L211.829 132.181L203.198 140.994C203.198 140.994 200.685 137.241 198.738 136.22C198.49 136.073 198.207 135.983 197.914 135.957C195.947 135.871 195.828 134.878 198.11 132.715C200.391 130.553 197.512 132.572 195.483 131.99C193.454 131.407 195.483 131.99 195.056 130.534C194.628 129.078 188.937 126.156 188.937 126.156L188.7 126.352L184.4 129.87L183.169 130.877C183.169 130.877 184.513 134.296 184.884 135.017C185.255 135.737 185.456 135.776 184.915 136.229Z" fill="#E6E6E6"/>
<path d="M71.5526 202.549L71.343 197.283L93.1544 194.027L93.4639 201.799L71.5526 202.549Z" fill="#FFB6B6"/>
<path d="M75.5119 204.134L75.7187 195.703L71.8304 195.836L65.553 188.041C65.243 187.656 64.8083 187.373 64.3125 187.233C63.8167 187.093 63.2856 187.104 62.7969 187.264C62.3081 187.424 61.8873 187.724 61.5957 188.121C61.3042 188.519 61.1573 188.992 61.1764 189.472L61.5751 199.488L65.49 201.083L61.6706 201.888L61.821 205.665L75.5119 204.134Z" fill="#2F2E41"/>
<path d="M194.31 204.599L125.225 206.223C125.225 206.223 95.3918 207.82 88.3922 203.599L81.0109 202.735L80.6108 192.684C80.6108 192.684 85.1245 192.715 87.7196 191.594C90.3147 190.474 88.5111 189.102 90.9853 190.451C93.4596 191.799 93.1982 191.961 95.1112 191.342C97.0242 190.722 184.749 178.327 184.749 178.327L194.31 204.599Z" fill="#2F2E41"/>
<path d="M103.274 200.237L99.2568 196.509L112.858 180.371L118.787 185.874L103.274 200.237Z" fill="#FFB6B6"/>
<path d="M107.34 196.994L101.306 190.682L98.5526 193.231L88.2318 191.475C87.7221 191.388 87.1958 191.455 86.7297 191.665C86.2637 191.875 85.8822 192.218 85.6412 192.643C85.4001 193.068 85.312 193.554 85.3897 194.029C85.4674 194.504 85.7069 194.943 86.0732 195.283L93.714 202.374L97.7541 201.075L95.5452 204.074L98.4261 206.748L107.34 196.994Z" fill="#2F2E41"/>
<path d="M221.566 169.526L220.879 184.325C220.071 201.748 199.373 212.292 183.323 203.196C183.027 203.028 182.73 202.854 182.433 202.675C182.433 202.675 176.348 201.16 176.533 198.761C176.718 196.362 175.231 195.195 173.916 195.849C172.6 196.503 155.377 173.845 155.377 173.845C155.377 173.845 119.594 190.392 111.7 194.287C111.7 194.287 104.277 183.529 104.816 183.642C105.354 183.755 149.084 155.382 149.084 155.382C149.084 155.382 156.209 148.698 165.046 153.111C165.23 153.759 165.073 153.782 165.073 153.782L194.266 175.833L198.391 168.571L221.566 169.526Z" fill="#2F2E41"/>
<path d="M194.041 151.024C194.096 151.708 194.201 152.387 194.355 153.058C194.565 154.029 194.904 154.971 195.365 155.865C195.365 155.865 195.365 156.863 197.425 160.205C199.485 163.546 196.91 162.114 195.365 164.597C193.82 167.075 195.365 165.934 197.08 167.528C197.573 167.992 197.924 168.57 198.095 169.202C198.266 169.835 198.252 170.498 198.053 171.123C198.053 171.123 220.178 171.137 224.298 169.705C228.418 168.273 229.355 160.205 225.663 159.407C221.975 158.61 226.78 157.818 228.948 155.98C231.117 154.142 226.78 151.134 226.78 151.134C226.78 151.134 228.567 148.274 228.418 138.674C228.397 137.79 228.309 136.91 228.155 136.038C227.858 134.394 227.412 132.776 226.821 131.202C226.008 129.023 225.041 126.895 223.927 124.833C223.33 123.712 222.717 122.642 222.13 121.659C222.037 121.506 221.949 121.358 221.857 121.21C220.739 119.377 219.719 117.878 219.045 116.918C218.525 116.173 218.21 115.753 218.21 115.753L214.461 109.709L201.946 115.147L202.657 124.041L200.499 130.748L199.505 133.837L198.738 136.22L197.553 139.91C197.553 139.91 197.878 139.924 197.492 140.416C195.713 142.608 194.56 145.182 194.139 147.897C193.991 148.933 193.958 149.981 194.041 151.024Z" fill="#E6E6E6"/>
<path d="M157.9 151.983L158.135 151.912L188.088 142.971L177.051 109.403C176.831 108.735 176.45 108.122 175.938 107.609C175.425 107.097 174.793 106.699 174.091 106.446C173.388 106.193 172.633 106.091 171.881 106.148C171.13 106.205 170.402 106.419 169.753 106.775L150.612 117.258C149.097 118.087 147.944 119.383 147.355 120.92C146.766 122.457 146.778 124.137 147.39 125.666L157.9 151.983Z" fill="#2F2E41"/>
<path d="M157.778 154.116L187.973 145.103L176.935 111.536C176.715 110.867 176.335 110.254 175.822 109.742C175.309 109.229 174.678 108.832 173.975 108.579C173.272 108.325 172.517 108.223 171.766 108.28C171.014 108.337 170.287 108.551 169.638 108.907L149.582 118.189C146.569 119.839 146.64 124.108 148.039 127.612L157.778 154.116Z" fill="#4ABEF8"/>
<path d="M160.801 156.546C161.497 156.91 162.266 157.135 163.06 157.209C163.855 157.282 164.657 157.201 165.416 156.972L184.715 151.21C186.196 150.762 187.429 149.794 188.151 148.515C188.872 147.235 189.026 145.744 188.578 144.361L178.902 114.935C178.709 114.347 178.391 113.801 177.967 113.329C177.542 112.856 177.021 112.467 176.432 112.184C175.844 111.901 175.2 111.729 174.54 111.68C173.879 111.63 173.214 111.704 172.584 111.895L152.584 117.983C151.631 118.273 150.75 118.737 149.994 119.348C149.238 119.959 148.621 120.704 148.181 121.539C147.74 122.374 147.485 123.283 147.43 124.211C147.375 125.14 147.521 126.069 147.859 126.944L158.205 153.681C158.67 154.895 159.592 155.912 160.801 156.546Z" fill="#3F3D56"/>
<path d="M202.654 109.812C195.02 109.812 188.831 104.075 188.831 96.9983C188.831 89.9213 195.02 84.1842 202.654 84.1842C210.288 84.1842 216.477 89.9213 216.477 96.9983C216.477 104.075 210.288 109.812 202.654 109.812Z" fill="#FFB6B6"/>
<path d="M249.398 110.005C248.13 112.285 246.05 114.087 243.511 115.107C242.498 115.535 241.432 115.847 240.338 116.038C240.029 114.901 239.534 113.814 238.87 112.816C239.091 113.941 239.091 115.094 238.87 116.219C237.203 116.346 235.526 116.153 233.943 115.652C232.388 115.162 230.978 114.343 229.825 113.26C228.671 112.176 227.806 110.858 227.297 109.411C226.196 106.014 227.382 102.387 227.475 98.8412C227.572 95.2954 225.755 91.0545 221.958 90.6158C219.066 90.2811 219.424 90.541 217.346 92.4347C220.253 95.4276 213.167 108.684 209.365 108.098C207.215 107.767 205.633 106.185 205.208 106.24C203.031 111.182 209.58 118.191 204.386 120.492L204.771 120.02C207.49 115.856 199.445 108.824 202.164 104.661C202.922 103.496 203.71 102.131 203.241 100.842C202.796 99.6171 200.542 99.2294 200.067 100.344C200.84 97.7889 198.682 94.7894 195.815 94.5286C193.269 94.2957 193.416 94.9685 190.988 95.5823C190.678 94.6128 190.231 93.6855 189.658 92.8245C189.852 93.8068 189.876 94.8114 189.729 95.8006C188.853 95.8975 187.968 95.7237 187.209 95.3062C184.967 94.0602 184.901 90.8441 186.441 88.8867C187.984 86.929 190.568 85.9623 193.062 85.2309C193.085 80.3428 207.274 78.0027 209.883 82.5473C210.152 78.8676 214.702 76.3888 218.622 77.0139C222.542 77.639 225.634 80.5526 227.519 83.8002C229.404 87.0451 230.34 90.6786 231.72 94.135C233.1 97.5914 235.073 101.038 238.377 103.089C241.681 105.137 246.591 105.323 249.35 102.668C249.979 103.802 250.311 105.057 250.32 106.331C250.328 107.606 250.012 108.865 249.398 110.005Z" fill="#2F2E41"/>
<path d="M235.214 168.603C234.928 168.391 234.618 168.209 234.289 168.06C228.998 165.619 212.544 159.283 199.678 159.543C174.924 160.043 143.421 185.368 150.752 202.375C156.331 215.315 184.067 222.678 204.314 216.789C232.677 208.54 243.872 175.003 235.214 168.603Z" fill="#3F3D56"/>
<path d="M337.98 261.831C346.069 260.416 353.229 226.635 337.315 209.998C331.862 204.298 325.061 201.817 316.014 199.509C263.942 186.22 224.227 198.885 218.89 201.977C213.564 205.062 204.229 251.548 216.167 258.128C222.883 261.831 236.196 263.682 242.793 259.362C252.498 253.007 236.207 236.521 243.458 225.425C251.687 212.832 295.016 208.591 316.74 221.105C339.917 234.457 292.111 269.852 337.98 261.831Z" fill="#F2F2F2"/>
<path d="M283.9 204.396H314.802C322.43 197.619 327.885 191.088 323.518 185.666C323.518 184.108 322.85 182.613 321.661 181.511C320.472 180.409 318.86 179.79 317.179 179.79H281.523C279.842 179.79 278.229 180.409 277.041 181.511C275.852 182.613 275.184 184.108 275.184 185.666C273.521 191.844 276.492 198.088 283.9 204.396Z" fill="#CCCCCC"/>
<path d="M289.45 172.393C289.743 172.405 290.033 172.334 290.281 172.189C290.529 172.043 290.723 171.83 290.836 171.579C290.949 171.328 290.977 171.051 290.914 170.785C290.852 170.519 290.703 170.278 290.487 170.093L290.389 169.731C290.402 169.703 290.415 169.674 290.428 169.645C290.723 168.998 291.218 168.447 291.851 168.06C292.483 167.673 293.225 167.468 293.982 167.47C294.74 167.473 295.48 167.683 296.109 168.074C296.738 168.466 297.229 169.02 297.519 169.669C298.679 172.258 300.155 174.852 300.519 177.59C300.679 178.8 300.612 180.027 300.319 181.216C303.043 175.707 304.458 169.721 304.467 163.661C304.467 162.141 304.376 160.621 304.194 159.11C304.043 157.872 303.834 156.642 303.566 155.42C302.106 148.795 298.972 142.584 294.42 137.3C292.217 136.185 290.435 134.472 289.315 132.39C288.909 131.641 288.622 130.843 288.463 130.018C288.712 130.048 289.4 126.54 289.213 126.324C289.559 125.837 290.179 125.595 290.557 125.12C292.439 122.755 295.031 123.168 296.384 126.381C299.274 127.733 299.302 129.976 297.528 132.133C296.4 133.505 296.245 135.362 295.255 136.831C295.357 136.952 295.463 137.069 295.565 137.19C297.427 139.409 299.049 141.793 300.41 144.305C300.079 141.49 300.474 138.643 301.562 135.997C302.665 133.531 304.732 131.454 306.552 129.322C308.738 126.761 313.221 127.879 313.607 131.125C313.61 131.156 313.614 131.188 313.618 131.219C313.347 131.36 313.083 131.51 312.824 131.669C312.498 131.871 312.246 132.158 312.1 132.495C311.955 132.832 311.922 133.201 312.007 133.555C312.091 133.909 312.289 134.231 312.575 134.479C312.86 134.727 313.22 134.889 313.606 134.945L313.646 134.95C313.55 135.854 313.379 136.749 313.137 137.628C315.472 145.999 310.431 149.048 303.232 149.185C303.073 149.261 302.919 149.336 302.76 149.408C304.127 152.998 304.984 156.739 305.31 160.534C305.495 162.773 305.484 165.023 305.278 167.261L305.29 167.181C305.811 164.693 307.243 162.448 309.344 160.825C312.463 158.449 316.871 157.575 320.236 155.665C320.594 155.452 321.01 155.339 321.435 155.338C321.86 155.337 322.277 155.448 322.635 155.66C322.994 155.871 323.28 156.173 323.46 156.53C323.64 156.887 323.706 157.284 323.65 157.675C323.645 157.703 323.641 157.73 323.636 157.758C323.134 157.948 322.646 158.166 322.173 158.412C321.903 158.553 321.638 158.703 321.379 158.862C321.054 159.063 320.802 159.351 320.656 159.688C320.511 160.024 320.478 160.394 320.562 160.748C320.647 161.102 320.845 161.424 321.131 161.672C321.416 161.92 321.776 162.082 322.162 162.137L322.202 162.143C322.23 162.147 322.255 162.151 322.283 162.154C321.426 164.052 320.223 165.798 318.727 167.317C317.267 174.625 310.996 175.318 304.288 173.19H304.283C303.547 176.155 302.481 179.041 301.102 181.801H289.734C289.694 181.684 289.657 181.563 289.62 181.446C290.673 181.507 291.729 181.449 292.766 181.272C291.922 180.313 291.079 179.346 290.236 178.387C290.217 178.369 290.199 178.35 290.183 178.33C289.755 177.839 289.323 177.352 288.895 176.861L288.895 176.86C288.872 175.355 289.059 173.854 289.45 172.393Z" fill="#CCCCCC"/>
<path d="M250.679 202.861C250.49 203.37 250.133 203.811 249.657 204.119C249.182 204.428 248.613 204.589 248.033 204.58L236.696 204.309C236.112 204.298 235.547 204.113 235.085 203.78C234.624 203.447 234.291 202.984 234.137 202.462L232.533 186.56C231.964 186.799 231.344 186.917 230.719 186.905C229.623 186.88 228.583 186.452 227.827 185.715C227.072 184.979 226.663 183.994 226.69 182.978C226.718 181.962 227.18 180.997 227.974 180.297C228.769 179.597 229.831 179.217 230.927 179.243C231.177 179.242 231.426 179.266 231.67 179.315C231.935 179.048 232.258 178.836 232.617 178.693C232.977 178.549 233.364 178.477 233.756 178.48L251.194 178.898C251.338 178.903 251.482 178.919 251.624 178.947C252.006 179.013 252.369 179.155 252.687 179.361C253.006 179.568 253.273 179.836 253.471 180.147C253.668 180.457 253.792 180.804 253.833 181.162C253.874 181.521 253.832 181.883 253.709 182.226L250.679 202.861ZM232.204 185.48L231.062 181.691C230.933 181.253 230.93 180.791 231.054 180.352C230.998 180.352 230.949 180.328 230.894 180.328C230.111 180.313 229.354 180.586 228.789 181.088C228.223 181.59 227.896 182.279 227.877 183.004C227.859 183.73 228.152 184.432 228.691 184.958C229.231 185.484 229.973 185.789 230.756 185.809C231.262 185.823 231.762 185.71 232.204 185.48Z" fill="#CCCCCC"/>
<path d="M251.624 178.947C251.252 180.916 247.075 182.301 242.053 182.06C237.434 181.863 233.658 180.359 232.966 178.578C233.222 178.508 233.489 178.475 233.756 178.48L251.194 178.898C251.338 178.903 251.482 178.919 251.624 178.947Z" fill="white"/>
<path d="M168.261 136.797C169.299 136.832 170.282 137.241 171 137.938C171.717 138.634 172.113 139.562 172.104 140.525C172.099 140.721 172.076 140.916 172.036 141.108L184.018 147.666L182.568 154.473L167.202 143.845C166.354 143.629 165.608 143.16 165.079 142.51C164.55 141.86 164.267 141.066 164.276 140.252C164.286 139.789 164.394 139.332 164.595 138.907C164.795 138.483 165.084 138.099 165.444 137.778C165.804 137.457 166.229 137.204 166.695 137.036C167.16 136.867 167.657 136.784 168.157 136.794C168.192 136.794 168.226 136.795 168.261 136.797Z" fill="#FFB6B6"/>
<path d="M178.076 152.429C178.397 152.031 178.535 151.865 178.608 151.91C178.795 152.015 178.615 153.422 179.934 155.873C181.792 159.316 201.27 164.59 201.27 164.59L203.669 160.52L214.217 142.634L217.853 128.298C217.98 127.798 218.042 127.286 218.037 126.773C214.795 124.658 211.353 122.821 207.752 121.285C206.313 122.041 205.216 123.253 204.662 124.697L197.4 143.571L194.503 151.106C194.503 151.106 189.391 147.718 187.537 148.34C185.686 148.966 185.16 148.088 186.37 145.279C187.58 142.471 185.764 145.362 183.651 145.546C181.533 145.732 183.651 145.546 182.65 144.354C181.65 143.162 175.183 142.491 175.183 142.491L175.046 142.757L172.54 147.536L171.822 148.909C171.822 148.909 174.479 151.581 175.12 152.114C175.764 152.65 175.963 152.613 175.648 153.224C175.337 153.833 176.963 153.805 178.076 152.429Z" fill="#E6E6E6"/>
</g>
<defs>
<filter id="filter0_f_7_241" x="-31.5371" y="-40" width="343.037" height="326.815" filterUnits="userSpaceOnUse" color-interpolation-filters="sRGB">
<feFlood flood-opacity="0" result="BackgroundImageFix"/>
<feBlend mode="normal" in="SourceGraphic" in2="BackgroundImageFix" result="shape"/>
<feGaussianBlur stdDeviation="50" result="effect1_foregroundBlur_7_241"/>
</filter>
<clipPath id="clip0_7_241">
<rect width="383" height="263" fill="white" transform="matrix(-1 0 0 1 383 0)"/>
</clipPath>
</defs>
</svg>
